{"title":"Mummy Returns(2001)1080p BDRip[Hindi-Eng-Tamil]6CH By !!!dip ","uid":6644201,"size":2929879479,"categoryP":"video","categoryS":"hd___movies","magnet":"?xt=urn:btih:cedc160bc3f6394f1ccfdb9d73b81cca4e0b091e&amp;dn=Mummy+Returns%282001%291080p+BDRip%5BHindi-Eng-Tamil%5D6CH+By+%21%21%21dip+&amp;tr=udp%3A%2F%2Ftracker.openbittorrent.com%3A80&amp;tr=udp%3A%2F%2Fopen.demonii.com%3A1337&amp;tr=udp%3A%2F%2Ftracker.coppersurfer.tk%3A6969&amp;tr=udp%3A%2F%2Fexodus.desync.com%3A6969","seeders":0,"leechers":1,"uploader":"dipty","files":-1,"time":1314883936,"description":"                       =!DK GROUP HD BLURAY RELEAESEES!=\n\n===================================================================================\n\nThe Mummy Returns(2001)1080p BDRip In[Hindi-Eng-Tamil]6CH.AC3 &amp; 2CH.AC3 By !!!dip\n\n===================================================================================\n\nStoryline:\n\nMany years ago, in Ancient Egypt, the Scorpian Kind led a menacing army, but when he sold his soul to Anubis, he was erased from history. Now he is only a myth...or is he? Rick and Evelyn O'Connell is still discovering new artifacts, along with their 8 year old son Alex. They discover the Bracelet of Anubis. But someone else is after the bracelet. High Priest Imhotep has been brought back from the dead once again and wants the bracelet, to control the Scorpian King's army. That's not the only problem. Imhotep now has Alex and with the bracelet attached to him, doesn't have long to live.  \n\nCast:\n\nBrendan Fraser..............Richard 'Rick' O'Connell\nRachel Weisz................Evelyn 'Evy' Carnahan O'Connell / Princess Nefertiri\nJohn Hannah.................Jonathan 'Jon' Carnahan\nArnold Vosloo...............High Priest Imhotep\nOded Fehr...................Ardeth Bay\nDwayne Johnson..............Mathayus the Scorpion King (as The Rock)\nFreddie Boath...............Alexander Rupert 'Alex' O'Connell\nPatricia Velasquez..........Meela Nais / Anck Su Namun\nAlun Armstrong..............Baltus Hafez\nAdewale Akinnuoye-Agbaje....Lock-Nah\nShaun Parkes................Izzy Buttons\nBruce Byron.................Red\nJoe Dixon...................Jacques\nTom Fisher..................Spivey\nAharon IpalÃƒÂ©................Pharaoh Seti I \n\nDirectors :Stephen Sommers\nWriters :Stephen Sommers\nStars:Brendan Fraser, Rachel Weisz and John Hannah\nFormat :Color, Dubbed,Widescreen\nLanguage :[Hindi-Eng-Tamil]6CH-AC3 &amp; 2CH-AC3\nRelease Date :4 May 2001 (USA)\nRun Time : 2h:04m:13s\nColor :Color\nSUBTITLE:NO\nEncoder: Deep Shikha\n\n\nVideo Specifications:\n\nRelease Title/Year/Language...:The Mummy Returns(2001)1080p BDRip In[Hindi-Eng-Tamil]6CH.AC3 &amp; 2CH.AC3 By !!!dip\n\nGenre.........................:Action | Drama | Romance    \nSource........................:BLURAY\n\nRelease Title/Year/Language...:The Mummy Returns(2001)1080p BDRip In[Hindi-Eng-Tamil]6CH.AC3 &amp; 2CH.AC3 By !!!dip\nGenre.........................:Action | Adventure | Fantasy \nSource........................:BLURAY\n\nVideo\nID                               : 1\nFormat                           : AVC\nFormat/Info                      : Advanced Video Codec\nFormat profile                   : &lt;a class=&quot;__cf_email__&quot; href=&quot;/cdn-cgi/l/email-protection&quot; data-cfemail=&quot;f3bb9a949bb3bfc7ddc3&quot;&gt;[email&amp;#160;protected]&lt;/a&gt;&lt;script cf-hash='f9e31' type=&quot;text/javascript&quot;&gt;\n/* &lt;![CDATA[ */!function(){try{var t=&quot;currentScript&quot;in document?document.currentScript:function(){for(var t=document.getElementsByTagName(&quot;script&quot;),e=t.length;e--;)if(t[e].getAttribute(&quot;cf-hash&quot;))return t[e]}();if(t&amp;&amp;t.previousSibling){var e,r,n,i,c=t.previousSibling,a=c.getAttribute(&quot;data-cfemail&quot;);if(a){for(e=&quot;&quot;,r=parseInt(a.substr(0,2),16),n=2;a.length-n;n+=2)i=parseInt(a.substr(n,2),16)^r,e+=String.fromCharCode(i);e=document.createTextNode(e),c.parentNode.replaceChild(e,c)}}}catch(u){}}();/* ]]&gt; */&lt;/script&gt;\nFormat settings, CABAC           : Yes\nFormat settings, ReFrames        : 5 frames\nMuxing mode                      : Header stripping\nCodec ID                         : V_MPEG4/ISO/AVC\nDuration                         : 2h 4mn\nWidth                            : 1920 pixels\nHeight                           : 816 pixels\nDisplay aspect ratio             : 2.35:1\nFrame rate                       : 25.000 fps\nOriginal frame rate              : 23.976 fps\nColor space                      : YUV\nChroma subsampling               : 4:2:0\nBit depth                        : 8 bits\nScan type                        : Progressive\nTitle                            : !!!dip\nTeam                             : DK Group HD Bluray Releases\n\nAudio Specifications:\n\n\nAudio #1\nID                               : 2\nFormat                           : AAC\nFormat/Info                      : Advanced Audio Codec\nFormat profile                   : LC\nCodec ID                         : A_AAC\nDuration                         : 2h 4mn\nChannel(s)                       : 6 channels\nChannel positions                : Front: L C R, Side: L R, LFE\nSampling rate                    : 48.0 KHz\nCompression mode                 : Lossy\nTitle                            : !!!dip\nLanguage                         : English\n\nAudio #2\nID                               : 3\nFormat                           : AC-3\nFormat/Info                      : Audio Coding 3\nMode extension                   : CM (complete main)\nMuxing mode                      : Header stripping\nCodec ID                         : A_AC3\nDuration                         : 2h 4mn\nBit rate mode                    : Constant\nBit rate                         : 192 Kbps\nChannel(s)                       : 2 channels\nChannel positions                : Front: L R\nSampling rate                    : 48.0 KHz\nBit depth                        : 16 bits\nCompression mode                 : Lossy\nDelay relative to video          : 2s 0ms\nStream size                      : 171 MiB (6%)\nTitle                            : !!!dip\nLanguage                         : Hindi\n\nAudio #3\nID                               : 4\nFormat                           : AC-3\nFormat/Info                      : Audio Coding 3\nMode extension                   : CM (complete main)\nMuxing mode                      : Header stripping\nCodec ID                         : A_AC3\nDuration                         : 2h 4mn\nBit rate mode                    : Constant\nBit rate                         : 192 Kbps\nChannel(s)                       : 2 channels\nChannel positions                : Front: L R\nSampling rate                    : 48.0 KHz\nBit depth                        : 16 bits\nCompression mode                 : Lossy\nDelay relative to video          : 2s 0ms\nStream size                      : 171 MiB (6%)\nTitle                            : !!!dip\nLanguage                         : Tamil\n\nSAMPLE IMAGE:\n &lt;a href=&quot;\nhttp://www.pix2links.com/images/12921671412817072865.jpg&quot; rel=&quot;nofollow&quot; target=&quot;_NEW&quot;&gt;\nhttp://www.pix2links.com/images/12921671412817072865.jpg&lt;/a&gt;\n &lt;a href=&quot;\nhttp://www.pix2links.com/images/06151401129981948211.jpg&quot; rel=&quot;nofollow&quot; target=&quot;_NEW&quot;&gt;\nhttp://www.pix2links.com/images/06151401129981948211.jpg&lt;/a&gt;\n &lt;a href=&quot;\nhttp://www.pix2links.com/images/62048964455171686985.jpg&quot; rel=&quot;nofollow&quot; target=&quot;_NEW&quot;&gt;\nhttp://www.pix2links.com/images/62048964455171686985.jpg&lt;/a&gt;\n &lt;a href=&quot;\nhttp://www.pix2links.com/images/84563627142599890972.jpg&quot; rel=&quot;nofollow&quot; target=&quot;_NEW&quot;&gt;\nhttp://www.pix2links.com/images/84563627142599890972.jpg&lt;/a&gt;\n &lt;a href=&quot;\nhttp://www.pix2links.com/images/79314928861897311359.jpg&quot; rel=&quot;nofollow&quot; target=&quot;_NEW&quot;&gt;\nhttp://www.pix2links.com/images/79314928861897311359.jpg&lt;/a&gt;\n\nSAMPLE VIDEO INCLUDED:","torrent":{"xt":"urn:btih:cedc160bc3f6394f1ccfdb9d73b81cca4e0b091e","amp;dn":"Mummy+Returns%282001%291080p+BDRip%5BHindi-Eng-Tamil%5D6CH+By+%21%21%21dip+","amp;tr":["udp%3A%2F%2Ftracker.openbittorrent.com%3A80","udp%3A%2F%2Fopen.demonii.com%3A1337","udp%3A%2F%2Ftracker.coppersurfer.tk%3A6969","udp%3A%2F%2Fexodus.desync.com%3A6969"],"infoHash":"cedc160bc3f6394f1ccfdb9d73b81cca4e0b091e","infoHashBuffer":{"type":"Buffer","data":[206,220,22,11,195,246,57,79,28,207,219,157,115,184,28,202,78,11,9,30]},"announce":[],"urlList":[]}}